<svg width="238" height="190" viewBox="0 0 238 190" fill="none" xmlns="http://www.w3.org/2000/svg">
<g clip-path="url(#clip0_101_3520)">
<path d="M238 0H0V189.865H238V0Z" fill="white"/>
<path d="M18.7192 13.3708H13.3708V147.079H18.7192V13.3708Z" fill="black"/>
<path d="M24.0675 13.3708H21.3933V147.079H24.0675V13.3708Z" fill="black"/>
<path d="M37.4382 13.3708H29.4158V147.079H37.4382V13.3708Z" fill="black"/>
<path d="M48.1349 13.3708H42.7866V147.079H48.1349V13.3708Z" fill="black"/>
<path d="M58.8315 13.3708H53.4832V147.079H58.8315V13.3708Z" fill="black"/>
<path d="M66.8541 13.3708H61.5057V147.079H66.8541V13.3708Z" fill="black"/>
<path d="M77.5506 13.3708H72.2023V147.079H77.5506V13.3708Z" fill="black"/>
<path d="M85.573 13.3708H80.2247V147.079H85.573V13.3708Z" fill="black"/>
<path d="M96.2697 13.3708H90.9214V147.079H96.2697V13.3708Z" fill="black"/>
<path d="M109.641 13.3708H101.618V147.079H109.641V13.3708Z" fill="black"/>
<path d="M114.989 13.3708H112.315V147.079H114.989V13.3708Z" fill="black"/>
<path d="M128.36 13.3708H117.663V147.079H128.36V13.3708Z" fill="black"/>
<path d="M136.382 13.3708H131.034V147.079H136.382V13.3708Z" fill="black"/>
<path d="M144.405 13.3708H141.73V147.079H144.405V13.3708Z" fill="black"/>
<path d="M155.101 13.3708H147.079V147.079H155.101V13.3708Z" fill="black"/>
<path d="M163.124 13.3708H160.449V147.079H163.124V13.3708Z" fill="black"/>
<path d="M179.169 13.3708H173.82V147.079H179.169V13.3708Z" fill="black"/>
<path d="M184.517 13.3708H181.843V147.079H184.517V13.3708Z" fill="black"/>
<path d="M195.214 13.3708H189.865V147.079H195.214V13.3708Z" fill="black"/>
<path d="M211.258 13.3708H203.236V147.079H211.258V13.3708Z" fill="black"/>
<path d="M216.607 13.3708H213.933V147.079H216.607V13.3708Z" fill="black"/>
<path d="M224.629 13.3708H219.281V147.079H224.629V13.3708Z" fill="black"/>
<path d="M104.891 172.569C104.249 172.569 103.702 172.394 103.25 172.045C102.798 171.692 102.453 171.182 102.215 170.515C101.976 169.844 101.857 169.035 101.857 168.086C101.857 167.143 101.976 166.337 102.215 165.67C102.456 164.999 102.803 164.488 103.254 164.136C103.709 163.78 104.254 163.603 104.891 163.603C105.527 163.603 106.071 163.78 106.523 164.136C106.977 164.488 107.324 164.999 107.563 165.67C107.804 166.337 107.925 167.143 107.925 168.086C107.925 169.035 107.805 169.844 107.567 170.515C107.328 171.182 106.983 171.692 106.531 172.045C106.08 172.394 105.533 172.569 104.891 172.569ZM104.891 171.631C105.527 171.631 106.021 171.324 106.374 170.711C106.726 170.097 106.902 169.222 106.902 168.086C106.902 167.33 106.821 166.687 106.659 166.155C106.5 165.624 106.27 165.219 105.969 164.941C105.67 164.663 105.311 164.523 104.891 164.523C104.26 164.523 103.767 164.834 103.412 165.457C103.057 166.076 102.879 166.952 102.879 168.086C102.879 168.841 102.959 169.484 103.118 170.012C103.277 170.54 103.506 170.942 103.804 171.218C104.105 171.493 104.467 171.631 104.891 171.631ZM112.612 163.722V172.449H111.555V164.83H111.504L109.374 166.245V165.171L111.555 163.722H112.612ZM117.969 172.569C117.327 172.569 116.78 172.394 116.328 172.045C115.876 171.692 115.531 171.182 115.293 170.515C115.054 169.844 114.935 169.035 114.935 168.086C114.935 167.143 115.054 166.337 115.293 165.67C115.534 164.999 115.881 164.488 116.332 164.136C116.787 163.78 117.332 163.603 117.969 163.603C118.605 163.603 119.149 163.78 119.601 164.136C120.055 164.488 120.402 164.999 120.641 165.67C120.882 166.337 121.003 167.143 121.003 168.086C121.003 169.035 120.884 169.844 120.645 170.515C120.406 171.182 120.061 171.692 119.609 172.045C119.158 172.394 118.611 172.569 117.969 172.569ZM117.969 171.631C118.605 171.631 119.099 171.324 119.452 170.711C119.804 170.097 119.98 169.222 119.98 168.086C119.98 167.33 119.899 166.687 119.737 166.155C119.578 165.624 119.348 165.219 119.047 164.941C118.749 164.663 118.389 164.523 117.969 164.523C117.338 164.523 116.845 164.834 116.49 165.457C116.135 166.076 115.957 166.952 115.957 168.086C115.957 168.841 116.037 169.484 116.196 170.012C116.355 170.54 116.584 170.942 116.882 171.218C117.183 171.493 117.545 171.631 117.969 171.631ZM125.469 172.569C124.827 172.569 124.28 172.394 123.828 172.045C123.376 171.692 123.031 171.182 122.793 170.515C122.554 169.844 122.435 169.035 122.435 168.086C122.435 167.143 122.554 166.337 122.793 165.67C123.034 164.999 123.381 164.488 123.832 164.136C124.287 163.78 124.832 163.603 125.469 163.603C126.105 163.603 126.649 163.78 127.101 164.136C127.555 164.488 127.902 164.999 128.141 165.67C128.382 166.337 128.503 167.143 128.503 168.086C128.503 169.035 128.384 169.844 128.145 170.515C127.906 171.182 127.561 171.692 127.109 172.045C126.658 172.394 126.111 172.569 125.469 172.569ZM125.469 171.631C126.105 171.631 126.599 171.324 126.952 170.711C127.304 170.097 127.48 169.222 127.48 168.086C127.48 167.33 127.399 166.687 127.237 166.155C127.078 165.624 126.848 165.219 126.547 164.941C126.249 164.663 125.889 164.523 125.469 164.523C124.838 164.523 124.345 164.834 123.99 165.457C123.635 166.076 123.457 166.952 123.457 168.086C123.457 168.841 123.537 169.484 123.696 170.012C123.855 170.54 124.084 170.942 124.382 171.218C124.683 171.493 125.045 171.631 125.469 171.631ZM133.071 172.569C132.509 172.569 132.007 172.472 131.567 172.279C131.129 172.086 130.781 171.817 130.523 171.474C130.267 171.127 130.128 170.725 130.105 170.268H131.179C131.202 170.549 131.298 170.792 131.469 170.996C131.639 171.198 131.862 171.354 132.138 171.465C132.413 171.576 132.719 171.631 133.054 171.631C133.429 171.631 133.761 171.566 134.051 171.435C134.341 171.305 134.568 171.123 134.733 170.89C134.898 170.657 134.98 170.387 134.98 170.08C134.98 169.759 134.901 169.476 134.742 169.232C134.582 168.985 134.349 168.792 134.043 168.653C133.736 168.513 133.361 168.444 132.918 168.444H132.219V167.506H132.918C133.264 167.506 133.568 167.444 133.83 167.319C134.094 167.194 134.3 167.018 134.447 166.79C134.598 166.563 134.673 166.296 134.673 165.989C134.673 165.694 134.608 165.437 134.477 165.218C134.347 164.999 134.162 164.829 133.923 164.707C133.688 164.584 133.409 164.523 133.088 164.523C132.787 164.523 132.503 164.579 132.236 164.689C131.972 164.797 131.756 164.955 131.588 165.163C131.42 165.367 131.33 165.614 131.315 165.904H130.293C130.31 165.447 130.447 165.046 130.706 164.702C130.965 164.356 131.303 164.086 131.72 163.893C132.141 163.699 132.602 163.603 133.105 163.603C133.645 163.603 134.108 163.712 134.494 163.931C134.881 164.147 135.178 164.432 135.385 164.788C135.592 165.143 135.696 165.526 135.696 165.938C135.696 166.43 135.567 166.849 135.308 167.195C135.053 167.542 134.705 167.782 134.264 167.915V167.984C134.815 168.074 135.246 168.309 135.555 168.687C135.865 169.062 136.02 169.526 136.02 170.08C136.02 170.555 135.891 170.981 135.632 171.359C135.376 171.734 135.027 172.029 134.584 172.245C134.141 172.461 133.636 172.569 133.071 172.569Z" fill="black"/>
</g>
<defs>
<clipPath id="clip0_101_3520">
<rect width="238" height="189.865" fill="white"/>
</clipPath>
</defs>
</svg>
