<svg width="233" height="52" viewBox="0 0 233 52" fill="none" xmlns="http://www.w3.org/2000/svg">
<path d="M115.94 2.85C114.7 1.62 113.08 1 111.45 1C109.83 1 108.2 1.62 106.97 2.85L88.83 20.99C86.36 23.46 86.36 27.48 88.83 29.96L106.97 48.1C109.44 50.57 113.46 50.57 115.94 48.1L134.08 29.96C136.55 27.49 136.55 23.47 134.08 20.99L115.94 2.85Z" fill="#2E384C"/>
<path d="M21.74 29.33V30.03C21.74 32.32 21.34 35.21 17.55 35.21C14.11 35.21 13.43 32.94 13.43 30.07V20.4C13.43 17.4 14.76 15.56 17.59 15.56C21.02 15.56 21.66 17.9 21.66 20.48V21.29H19.08V20.22C19.08 18.85 18.81 17.9 17.58 17.9C16.39 17.9 16.05 18.78 16.05 20.25V30.28C16.05 31.81 16.37 32.9 17.62 32.9C18.86 32.9 19.14 31.87 19.14 30.29V29.33H21.74Z" fill="#2E384C"/>
<path d="M32.32 20.75V29.97C32.32 33.51 30.84 35.22 27.76 35.22C24.72 35.22 23.45 33.4 23.45 30.01V20.73C23.45 17.24 25.14 15.56 27.93 15.56C30.8 15.56 32.32 17.35 32.32 20.75ZM26.06 20.54V30.28C26.06 32.1 26.72 32.9 27.88 32.9C29.11 32.9 29.71 32.15 29.71 30.22V20.53C29.71 18.8 29.15 17.9 27.87 17.9C26.68 17.9 26.06 18.73 26.06 20.54Z" fill="#2E384C"/>
<path d="M34.63 34.95V15.83H37.63C38.51 18.88 40.95 28.56 41.19 29.81H41.23C41.1 27.37 41.09 24.68 41.09 21.55V15.84H43.47V34.96H40.58C39.8 32.13 37.18 21.63 36.91 20.52H36.88C37.01 22.83 37.03 25.62 37.03 29.06V34.96H34.63V34.95Z" fill="#2E384C"/>
<path d="M54.05 29.33V30.03C54.05 32.32 53.66 35.21 49.86 35.21C46.42 35.21 45.74 32.94 45.74 30.07V20.4C45.74 17.4 47.07 15.56 49.9 15.56C53.33 15.56 53.97 17.9 53.97 20.48V21.29H51.39V20.22C51.39 18.85 51.12 17.9 49.89 17.9C48.7 17.9 48.36 18.78 48.36 20.25V30.28C48.36 31.81 48.68 32.9 49.93 32.9C51.17 32.9 51.45 31.87 51.45 30.29V29.33H54.05Z" fill="#2E384C"/>
<path d="M62.68 26H58.44V32.6H63.29L62.96 34.96H55.88V15.83H62.92V18.21H58.44V23.64H62.68V26Z" fill="#2E384C"/>
<path d="M64.79 15.83H68.72C71.67 15.83 73.14 17.3 73.14 20.56V21.7C73.14 24.74 72.13 26.84 68.57 26.84H67.35V34.94H64.79V15.83ZM67.36 24.73H68.31C70.29 24.73 70.6 23.55 70.6 21.63V20.65C70.6 19.19 70.31 17.96 68.53 17.96H67.36V24.73Z" fill="#2E384C"/>
<path d="M77.09 18.21H74.01V15.83H82.74V18.21H79.66V34.95H77.1V18.21H77.09Z" fill="#2E384C"/>
<path d="M141.64 15.83H145.57C148.52 15.83 149.99 17.3 149.99 20.56V21.7C149.99 24.74 148.98 26.84 145.42 26.84H144.2V34.94H141.64V15.83ZM144.2 24.73H145.15C147.13 24.73 147.44 23.55 147.44 21.63V20.65C147.44 19.19 147.15 17.96 145.37 17.96H144.2V24.73Z" fill="#2E384C"/>
<path d="M153.3 29.42L152.53 34.95H149.93L153.03 15.83H156.66L159.89 34.95H157.21L156.36 29.42H153.3ZM156.04 27.06C155.51 23.41 155.06 20.26 154.86 18.24H154.76C154.68 19.77 154.06 23.95 153.62 27.06H156.04Z" fill="#2E384C"/>
<path d="M163.95 26.24V34.95H161.39V15.83H165.16C168.05 15.83 169.64 17.03 169.64 20.35V21.14C169.64 23.93 168.56 24.81 167.69 25.14C168.85 25.63 169.45 26.48 169.45 29.06C169.45 30.68 169.42 33.76 169.63 34.94H167.15C166.9 33.77 166.95 30.6 166.95 29.23C166.95 26.84 166.63 26.23 164.84 26.23H163.95V26.24ZM163.95 24.11H164.87C166.54 24.11 167.07 23.33 167.07 21.26V20.52C167.07 18.93 166.69 17.97 164.92 17.97H163.95V24.11Z" fill="#2E384C"/>
<path d="M173.76 18.21H170.68V15.83H179.4V18.21H176.32V34.95H173.76V18.21Z" fill="#2E384C"/>
<path d="M180.76 34.95V15.83H183.76C184.64 18.88 187.08 28.56 187.32 29.81H187.36C187.23 27.37 187.22 24.68 187.22 21.55V15.84H189.6V34.96H186.71C185.93 32.13 183.31 21.63 183.04 20.52H183.01C183.14 22.83 183.16 25.62 183.16 29.06V34.96H180.76V34.95Z" fill="#2E384C"/>
<path d="M199.07 26H194.83V32.6H199.68L199.35 34.96H192.27V15.83H199.31V18.21H194.83V23.64H199.07V26Z" fill="#2E384C"/>
<path d="M203.76 26.24V34.95H201.2V15.83H204.97C207.86 15.83 209.45 17.03 209.45 20.35V21.14C209.45 23.93 208.37 24.81 207.5 25.14C208.66 25.63 209.26 26.48 209.26 29.06C209.26 30.68 209.23 33.76 209.44 34.94H206.96C206.71 33.77 206.76 30.6 206.76 29.23C206.76 26.84 206.44 26.23 204.65 26.23H203.76V26.24ZM203.76 24.11H204.68C206.35 24.11 206.88 23.33 206.88 21.26V20.52C206.88 18.93 206.5 17.97 204.73 17.97H203.76V24.11Z" fill="#2E384C"/>
<path d="M213.62 29.43V30.58C213.62 32.16 214.13 33.03 215.34 33.03C216.58 33.03 216.98 31.98 216.98 30.38C216.98 28.25 216.52 27.51 214.48 25.92C212.43 24.31 211.35 23.3 211.35 20.47C211.35 17.99 212.1 15.54 215.36 15.55C218.6 15.56 219.23 17.81 219.23 20.03V21H216.69V20.1C216.69 18.66 216.43 17.76 215.31 17.76C214.2 17.76 213.92 18.73 213.92 20.09C213.92 21.62 214.22 22.29 215.93 23.56C218.7 25.63 219.57 26.81 219.57 30C219.57 32.7 218.7 35.22 215.27 35.22C211.92 35.22 211.06 33.06 211.06 30.55V29.43H213.62Z" fill="#2E384C"/>
<path d="M214.65 7.03H122.13L123.56 8.46H214.65C223.98 8.46 231.57 16.05 231.57 25.38C231.57 34.71 223.98 42.3 214.65 42.3H123.75L122.32 43.73H214.65C224.77 43.73 233 35.5 233 25.38C233 15.26 224.77 7.03 214.65 7.03Z" fill="#2E384C"/>
<path d="M99.16 42.3H18.35C9.02 42.3 1.43 34.71 1.43 25.38C1.43 16.05 9.02 8.46 18.35 8.46H99.35L100.78 7.03H18.35C8.23 7.03 0 15.26 0 25.38C0 35.5 8.23 43.73 18.35 43.73H100.59L99.16 42.3Z" fill="#2E384C"/>
<path d="M115.47 39.53V29.05H125.65V21.89H115.47V11.42H107.44V21.89H97.25V29.05H107.43V39.53H115.47Z" fill="#EBE326"/>
</svg>
