<svg width="233" height="59" viewBox="0 0 233 59" fill="none" xmlns="http://www.w3.org/2000/svg">
<rect x="0.801025" width="232" height="59" rx="12" fill="#D93B21"/>
<path d="M38.801 31.5V34.1667C38.801 34.5203 38.6605 34.8594 38.4105 35.1095C38.1605 35.3595 37.8213 35.5 37.4677 35.5H28.1344C27.7807 35.5 27.4416 35.3595 27.1915 35.1095C26.9415 34.8594 26.801 34.5203 26.801 34.1667V31.5" stroke="white" stroke-linecap="round" stroke-linejoin="round"/>
<path d="M29.4677 28.1667L32.801 31.5L36.1343 28.1667" stroke="white" stroke-linecap="round" stroke-linejoin="round"/>
<path d="M32.801 31.5V23.5" stroke="white" stroke-linecap="round" stroke-linejoin="round"/>
<path d="M57.051 36.5H52.5624V21.9545H57.2499C58.6609 21.9545 59.8683 22.2457 60.872 22.8281C61.8758 23.4058 62.6452 24.2367 63.1803 25.321C63.7153 26.4006 63.9828 27.6932 63.9828 29.1989C63.9828 30.714 63.713 32.0185 63.1732 33.1122C62.6334 34.2012 61.8474 35.0393 60.8152 35.6264C59.783 36.2088 58.5283 36.5 57.051 36.5ZM54.3238 34.9375H56.9374C58.14 34.9375 59.1367 34.7055 59.9274 34.2415C60.7182 33.7775 61.3077 33.117 61.6959 32.2599C62.0842 31.4029 62.2783 30.3826 62.2783 29.1989C62.2783 28.0246 62.0865 27.0137 61.703 26.1662C61.3195 25.3139 60.7466 24.6605 59.9843 24.206C59.222 23.7467 58.2726 23.517 57.1363 23.517H54.3238V34.9375ZM71.1419 36.7273C70.1571 36.7273 69.293 36.4929 68.5496 36.0241C67.811 35.5554 67.2333 34.8996 66.8167 34.0568C66.4047 33.214 66.1988 32.2292 66.1988 31.1023C66.1988 29.9659 66.4047 28.974 66.8167 28.1264C67.2333 27.2789 67.811 26.6207 68.5496 26.152C69.293 25.6832 70.1571 25.4489 71.1419 25.4489C72.1268 25.4489 72.9885 25.6832 73.7272 26.152C74.4705 26.6207 75.0482 27.2789 75.4601 28.1264C75.8768 28.974 76.0851 29.9659 76.0851 31.1023C76.0851 32.2292 75.8768 33.214 75.4601 34.0568C75.0482 34.8996 74.4705 35.5554 73.7272 36.0241C72.9885 36.4929 72.1268 36.7273 71.1419 36.7273ZM71.1419 35.2216C71.89 35.2216 72.5056 35.0298 72.9885 34.6463C73.4715 34.2628 73.829 33.7585 74.061 33.1335C74.293 32.5085 74.409 31.8314 74.409 31.1023C74.409 30.3731 74.293 29.6937 74.061 29.0639C73.829 28.4342 73.4715 27.9252 72.9885 27.5369C72.5056 27.1487 71.89 26.9545 71.1419 26.9545C70.3938 26.9545 69.7783 27.1487 69.2953 27.5369C68.8124 27.9252 68.4549 28.4342 68.2229 29.0639C67.9909 29.6937 67.8749 30.3731 67.8749 31.1023C67.8749 31.8314 67.9909 32.5085 68.2229 33.1335C68.4549 33.7585 68.8124 34.2628 69.2953 34.6463C69.7783 35.0298 70.3938 35.2216 71.1419 35.2216ZM80.7442 36.5L77.4203 25.5909H79.1817L81.5397 33.9432H81.6533L83.9828 25.5909H85.7726L88.0738 33.9148H88.1874L90.5453 25.5909H92.3067L88.9828 36.5H87.3351L84.9488 28.1193H84.7783L82.3919 36.5H80.7442ZM96.1988 29.9375V36.5H94.5226V25.5909H96.1419V27.2955H96.284C96.5397 26.7415 96.9279 26.2964 97.4488 25.9602C97.9696 25.6193 98.6419 25.4489 99.4658 25.4489C100.204 25.4489 100.851 25.6004 101.405 25.9034C101.959 26.2017 102.39 26.6562 102.697 27.267C103.005 27.8731 103.159 28.6402 103.159 29.5682V36.5H101.483V29.6818C101.483 28.8248 101.26 28.1572 100.815 27.679C100.37 27.196 99.7594 26.9545 98.9828 26.9545C98.4478 26.9545 97.9696 27.0705 97.5482 27.3026C97.1315 27.5346 96.8024 27.8731 96.561 28.3182C96.3195 28.7633 96.1988 29.303 96.1988 29.9375ZM107.898 21.9545V36.5H106.222V21.9545H107.898ZM115.4 36.7273C114.415 36.7273 113.551 36.4929 112.807 36.0241C112.069 35.5554 111.491 34.8996 111.074 34.0568C110.663 33.214 110.457 32.2292 110.457 31.1023C110.457 29.9659 110.663 28.974 111.074 28.1264C111.491 27.2789 112.069 26.6207 112.807 26.152C113.551 25.6832 114.415 25.4489 115.4 25.4489C116.385 25.4489 117.246 25.6832 117.985 26.152C118.728 26.6207 119.306 27.2789 119.718 28.1264C120.135 28.974 120.343 29.9659 120.343 31.1023C120.343 32.2292 120.135 33.214 119.718 34.0568C119.306 34.8996 118.728 35.5554 117.985 36.0241C117.246 36.4929 116.385 36.7273 115.4 36.7273ZM115.4 35.2216C116.148 35.2216 116.763 35.0298 117.246 34.6463C117.729 34.2628 118.087 33.7585 118.319 33.1335C118.551 32.5085 118.667 31.8314 118.667 31.1023C118.667 30.3731 118.551 29.6937 118.319 29.0639C118.087 28.4342 117.729 27.9252 117.246 27.5369C116.763 27.1487 116.148 26.9545 115.4 26.9545C114.652 26.9545 114.036 27.1487 113.553 27.5369C113.07 27.9252 112.713 28.4342 112.481 29.0639C112.249 29.6937 112.133 30.3731 112.133 31.1023C112.133 31.8314 112.249 32.5085 112.481 33.1335C112.713 33.7585 113.07 34.2628 113.553 34.6463C114.036 35.0298 114.652 35.2216 115.4 35.2216ZM126.112 36.7557C125.42 36.7557 124.793 36.6255 124.23 36.3651C123.666 36.0999 123.219 35.7188 122.887 35.2216C122.556 34.7197 122.39 34.1136 122.39 33.4034C122.39 32.7784 122.513 32.2718 122.759 31.8835C123.006 31.4905 123.335 31.1828 123.747 30.9602C124.159 30.7377 124.613 30.572 125.11 30.4631C125.612 30.3494 126.116 30.2595 126.623 30.1932C127.286 30.108 127.823 30.044 128.235 30.0014C128.652 29.9541 128.955 29.8759 129.144 29.767C129.339 29.6581 129.436 29.4687 129.436 29.1989V29.142C129.436 28.4413 129.244 27.8968 128.86 27.5085C128.482 27.1203 127.906 26.9261 127.134 26.9261C126.334 26.9261 125.707 27.1013 125.252 27.4517C124.798 27.8021 124.478 28.1761 124.294 28.5739L122.703 28.0057C122.987 27.3428 123.366 26.8267 123.839 26.4574C124.317 26.0833 124.838 25.8229 125.402 25.6761C125.97 25.5246 126.528 25.4489 127.078 25.4489C127.428 25.4489 127.83 25.4915 128.285 25.5767C128.744 25.6572 129.187 25.8253 129.613 26.081C130.044 26.3366 130.402 26.7225 130.686 27.2386C130.97 27.7547 131.112 28.446 131.112 29.3125V36.5H129.436V35.0227H129.35C129.237 35.2595 129.047 35.5128 128.782 35.7827C128.517 36.0526 128.164 36.2822 127.724 36.4716C127.284 36.661 126.746 36.7557 126.112 36.7557ZM126.367 35.25C127.03 35.25 127.589 35.1198 128.044 34.8594C128.503 34.599 128.848 34.2628 129.08 33.8509C129.317 33.4389 129.436 33.0057 129.436 32.5511V31.017C129.365 31.1023 129.208 31.1804 128.967 31.2514C128.73 31.3177 128.455 31.3769 128.143 31.429C127.835 31.4763 127.535 31.5189 127.241 31.5568C126.952 31.59 126.718 31.6184 126.538 31.642C126.102 31.6989 125.695 31.7912 125.316 31.919C124.942 32.0421 124.639 32.2292 124.407 32.4801C124.18 32.7263 124.066 33.0625 124.066 33.4886C124.066 34.071 124.282 34.5114 124.713 34.8097C125.148 35.1032 125.7 35.25 126.367 35.25ZM138.29 36.7273C137.381 36.7273 136.579 36.4976 135.883 36.0384C135.187 35.5743 134.642 34.9209 134.249 34.0781C133.856 33.2306 133.66 32.2292 133.66 31.0739C133.66 29.928 133.856 28.9337 134.249 28.0909C134.642 27.2481 135.189 26.5971 135.89 26.1378C136.591 25.6785 137.4 25.4489 138.319 25.4489C139.029 25.4489 139.59 25.5672 140.002 25.804C140.419 26.036 140.736 26.3011 140.954 26.5994C141.176 26.893 141.349 27.1345 141.472 27.3239H141.614V21.9545H143.29V36.5H141.671V34.8239H141.472C141.349 35.0227 141.174 35.2737 140.947 35.5767C140.719 35.875 140.395 36.1425 139.974 36.3793C139.552 36.6113 138.991 36.7273 138.29 36.7273ZM138.518 35.2216C139.19 35.2216 139.758 35.0464 140.222 34.696C140.686 34.3409 141.039 33.8509 141.28 33.2259C141.522 32.5961 141.643 31.8693 141.643 31.0455C141.643 30.2311 141.524 29.5185 141.288 28.9077C141.051 28.2921 140.7 27.8139 140.236 27.473C139.772 27.1274 139.199 26.9545 138.518 26.9545C137.807 26.9545 137.216 27.1368 136.742 27.5014C136.273 27.8613 135.921 28.3513 135.684 28.9716C135.452 29.5871 135.336 30.2784 135.336 31.0455C135.336 31.822 135.454 32.5275 135.691 33.1619C135.932 33.7917 136.288 34.2936 136.756 34.6676C137.23 35.0369 137.817 35.2216 138.518 35.2216ZM152.218 36.5V25.5909H153.894V36.5H152.218ZM153.07 23.7727C152.743 23.7727 152.462 23.6615 152.225 23.4389C151.993 23.2164 151.877 22.9489 151.877 22.6364C151.877 22.3239 151.993 22.0563 152.225 21.8338C152.462 21.6113 152.743 21.5 153.07 21.5C153.397 21.5 153.676 21.6113 153.908 21.8338C154.145 22.0563 154.263 22.3239 154.263 22.6364C154.263 22.9489 154.145 23.2164 153.908 23.4389C153.676 23.6615 153.397 23.7727 153.07 23.7727ZM156.964 36.5V25.5909H158.583V27.2955H158.725C158.953 26.7131 159.32 26.2609 159.826 25.9389C160.333 25.6122 160.941 25.4489 161.652 25.4489C162.371 25.4489 162.97 25.6122 163.448 25.9389C163.931 26.2609 164.308 26.7131 164.578 27.2955H164.691C164.971 26.732 165.39 26.2846 165.948 25.9531C166.507 25.617 167.177 25.4489 167.958 25.4489C168.934 25.4489 169.732 25.7543 170.352 26.3651C170.972 26.9711 171.282 27.9157 171.282 29.1989V36.5H169.606V29.1989C169.606 28.3939 169.386 27.8187 168.946 27.473C168.505 27.1274 167.987 26.9545 167.39 26.9545C166.623 26.9545 166.029 27.1866 165.607 27.6506C165.186 28.1098 164.975 28.6922 164.975 29.3977V36.5H163.271V29.0284C163.271 28.4081 163.07 27.9086 162.667 27.5298C162.265 27.1463 161.746 26.9545 161.112 26.9545C160.676 26.9545 160.269 27.0705 159.89 27.3026C159.516 27.5346 159.213 27.8565 158.981 28.2685C158.754 28.6757 158.64 29.1468 158.64 29.6818V36.5H156.964ZM177.557 36.7557C176.866 36.7557 176.238 36.6255 175.675 36.3651C175.112 36.0999 174.664 35.7188 174.333 35.2216C174.001 34.7197 173.835 34.1136 173.835 33.4034C173.835 32.7784 173.959 32.2718 174.205 31.8835C174.451 31.4905 174.78 31.1828 175.192 30.9602C175.604 30.7377 176.058 30.572 176.556 30.4631C177.058 30.3494 177.562 30.2595 178.068 30.1932C178.731 30.108 179.269 30.044 179.681 30.0014C180.097 29.9541 180.4 29.8759 180.59 29.767C180.784 29.6581 180.881 29.4687 180.881 29.1989V29.142C180.881 28.4413 180.689 27.8968 180.306 27.5085C179.927 27.1203 179.352 26.9261 178.58 26.9261C177.78 26.9261 177.152 27.1013 176.698 27.4517C176.243 27.8021 175.924 28.1761 175.739 28.5739L174.148 28.0057C174.432 27.3428 174.811 26.8267 175.284 26.4574C175.763 26.0833 176.283 25.8229 176.847 25.6761C177.415 25.5246 177.974 25.4489 178.523 25.4489C178.873 25.4489 179.276 25.4915 179.73 25.5767C180.19 25.6572 180.632 25.8253 181.058 26.081C181.489 26.3366 181.847 26.7225 182.131 27.2386C182.415 27.7547 182.557 28.446 182.557 29.3125V36.5H180.881V35.0227H180.796C180.682 35.2595 180.493 35.5128 180.228 35.7827C179.962 36.0526 179.61 36.2822 179.169 36.4716C178.729 36.661 178.192 36.7557 177.557 36.7557ZM177.813 35.25C178.476 35.25 179.034 35.1198 179.489 34.8594C179.948 34.599 180.294 34.2628 180.526 33.8509C180.763 33.4389 180.881 33.0057 180.881 32.5511V31.017C180.81 31.1023 180.654 31.1804 180.412 31.2514C180.175 31.3177 179.901 31.3769 179.588 31.429C179.281 31.4763 178.98 31.5189 178.686 31.5568C178.397 31.59 178.163 31.6184 177.983 31.642C177.548 31.6989 177.14 31.7912 176.762 31.919C176.388 32.0421 176.085 32.2292 175.853 32.4801C175.625 32.7263 175.512 33.0625 175.512 33.4886C175.512 34.071 175.727 34.5114 176.158 34.8097C176.594 35.1032 177.145 35.25 177.813 35.25ZM190.02 40.8182C189.21 40.8182 188.514 40.714 187.932 40.5057C187.349 40.3021 186.864 40.0322 186.476 39.696C186.092 39.3646 185.787 39.0095 185.56 38.6307L186.895 37.6932C187.046 37.892 187.238 38.1193 187.47 38.375C187.702 38.6354 188.019 38.8603 188.422 39.0497C188.829 39.2438 189.362 39.3409 190.02 39.3409C190.9 39.3409 191.627 39.1278 192.2 38.7017C192.773 38.2756 193.06 37.608 193.06 36.6989V34.483H192.918C192.794 34.6818 192.619 34.928 192.392 35.2216C192.169 35.5104 191.847 35.7685 191.426 35.9957C191.009 36.2183 190.446 36.3295 189.736 36.3295C188.855 36.3295 188.064 36.1212 187.364 35.7045C186.668 35.2879 186.116 34.6818 185.709 33.8864C185.306 33.0909 185.105 32.125 185.105 30.9886C185.105 29.8712 185.301 28.8982 185.694 28.0696C186.087 27.2363 186.634 26.5923 187.335 26.1378C188.036 25.6785 188.846 25.4489 189.764 25.4489C190.474 25.4489 191.038 25.5672 191.454 25.804C191.876 26.036 192.198 26.3011 192.42 26.5994C192.648 26.893 192.823 27.1345 192.946 27.3239H193.116V25.5909H194.736V36.8125C194.736 37.75 194.523 38.5123 194.096 39.0994C193.675 39.6913 193.107 40.1245 192.392 40.3991C191.682 40.6785 190.891 40.8182 190.02 40.8182ZM189.963 34.8239C190.635 34.8239 191.203 34.67 191.668 34.3622C192.132 34.0545 192.484 33.6117 192.726 33.0341C192.967 32.4564 193.088 31.7652 193.088 30.9602C193.088 30.1742 192.97 29.4806 192.733 28.8793C192.496 28.2779 192.146 27.8068 191.682 27.4659C191.218 27.125 190.645 26.9545 189.963 26.9545C189.253 26.9545 188.661 27.1345 188.187 27.4943C187.719 27.8542 187.366 28.3371 187.129 28.9432C186.897 29.5492 186.781 30.2216 186.781 30.9602C186.781 31.7178 186.9 32.3878 187.136 32.9702C187.378 33.5478 187.733 34.0024 188.202 34.3338C188.675 34.6605 189.262 34.8239 189.963 34.8239ZM202.378 36.7273C201.327 36.7273 200.42 36.4953 199.658 36.0312C198.9 35.5625 198.315 34.9091 197.903 34.071C197.496 33.2282 197.293 32.2481 197.293 31.1307C197.293 30.0133 197.496 29.0284 197.903 28.1761C198.315 27.3191 198.888 26.6515 199.622 26.1733C200.361 25.6903 201.222 25.4489 202.207 25.4489C202.775 25.4489 203.337 25.5436 203.891 25.733C204.444 25.9223 204.949 26.2301 205.403 26.6562C205.858 27.0777 206.22 27.6364 206.49 28.3324C206.76 29.0284 206.895 29.8854 206.895 30.9034V31.6136H198.486V30.1648H205.19C205.19 29.5492 205.067 29 204.821 28.517C204.579 28.0341 204.234 27.6529 203.784 27.3736C203.339 27.0942 202.813 26.9545 202.207 26.9545C201.54 26.9545 200.962 27.1203 200.474 27.4517C199.991 27.7784 199.62 28.2045 199.359 28.7301C199.099 29.2557 198.969 29.8191 198.969 30.4205V31.3864C198.969 32.2102 199.111 32.9086 199.395 33.4815C199.684 34.0497 200.084 34.483 200.595 34.7812C201.106 35.0748 201.701 35.2216 202.378 35.2216C202.818 35.2216 203.216 35.16 203.571 35.0369C203.931 34.9091 204.241 34.7197 204.501 34.4688C204.762 34.2131 204.963 33.8958 205.105 33.517L206.724 33.9716C206.554 34.5208 206.267 35.0038 205.865 35.4205C205.462 35.8324 204.965 36.1544 204.373 36.3864C203.782 36.6136 203.116 36.7273 202.378 36.7273Z" fill="white"/>
</svg>
