<svg width="175" height="59" viewBox="0 0 175 59" fill="none" xmlns="http://www.w3.org/2000/svg">
<rect x="0.801147" width="174" height="59" rx="12" fill="white"/>
<g clip-path="url(#clip0_101_3549)">
<path d="M40.5462 29.77C40.5462 28.98 40.4762 28.23 40.3562 27.5H29.0562V32.01H35.5262C35.2362 33.49 34.3862 34.74 33.1262 35.59V38.59H36.9862C39.2462 36.5 40.5462 33.42 40.5462 29.77Z" fill="#4285F4"/>
<path d="M29.0562 41.5C32.2962 41.5 35.0062 40.42 36.9862 38.59L33.1262 35.59C32.0462 36.31 30.6762 36.75 29.0562 36.75C25.9262 36.75 23.2762 34.64 22.3262 31.79H18.3462V34.88C20.3162 38.8 24.3662 41.5 29.0562 41.5Z" fill="#34A853"/>
<path d="M22.3262 31.79C22.0762 31.07 21.9462 30.3 21.9462 29.5C21.9462 28.7 22.0862 27.93 22.3262 27.21V24.12H18.3462C17.5262 25.74 17.0562 27.56 17.0562 29.5C17.0562 31.44 17.5262 33.26 18.3462 34.88L22.3262 31.79Z" fill="#FBBC05"/>
<path d="M29.0562 22.25C30.8262 22.25 32.4062 22.86 33.6562 24.05L37.0762 20.63C35.0062 18.69 32.2962 17.5 29.0562 17.5C24.3662 17.5 20.3162 20.2 18.3462 24.12L22.3262 27.21C23.2762 24.36 25.9262 22.25 29.0562 22.25Z" fill="#EA4335"/>
</g>
<path d="M52.4517 22H51.1591L54.8977 11.8182H56.1705L59.9091 22H58.6165L55.5739 13.429H55.4943L52.4517 22ZM52.929 18.0227H58.1392V19.1165H52.929V18.0227ZM61.3359 14.3636H62.5092V22.5568C62.5092 23.0275 62.428 23.4351 62.2656 23.7798C62.1065 24.1245 61.8646 24.3913 61.5398 24.5803C61.2183 24.7692 60.8123 24.8636 60.3217 24.8636C60.282 24.8636 60.2422 24.8636 60.2024 24.8636C60.1627 24.8636 60.1229 24.8636 60.0831 24.8636V23.7699C60.1229 23.7699 60.1593 23.7699 60.1925 23.7699C60.2256 23.7699 60.2621 23.7699 60.3019 23.7699C60.6598 23.7699 60.9216 23.6638 61.0874 23.4517C61.2531 23.2429 61.3359 22.9446 61.3359 22.5568V14.3636ZM61.9127 13.0909C61.684 13.0909 61.4868 13.013 61.321 12.8572C61.1586 12.7015 61.0774 12.5142 61.0774 12.2955C61.0774 12.0767 61.1586 11.8894 61.321 11.7337C61.4868 11.5779 61.684 11.5 61.9127 11.5C62.1413 11.5 62.3369 11.5779 62.4993 11.7337C62.665 11.8894 62.7479 12.0767 62.7479 12.2955C62.7479 12.5142 62.665 12.7015 62.4993 12.8572C62.3369 13.013 62.1413 13.0909 61.9127 13.0909ZM67.7605 22.1591C67.0711 22.1591 66.4662 21.995 65.9459 21.6669C65.4288 21.3388 65.0245 20.8797 64.7328 20.2898C64.4444 19.6998 64.3003 19.0104 64.3003 18.2216C64.3003 17.4261 64.4444 16.7318 64.7328 16.1385C65.0245 15.5452 65.4288 15.0845 65.9459 14.7564C66.4662 14.4283 67.0711 14.2642 67.7605 14.2642C68.4499 14.2642 69.0531 14.4283 69.5701 14.7564C70.0905 15.0845 70.4949 15.5452 70.7832 16.1385C71.0749 16.7318 71.2207 17.4261 71.2207 18.2216C71.2207 19.0104 71.0749 19.6998 70.7832 20.2898C70.4949 20.8797 70.0905 21.3388 69.5701 21.6669C69.0531 21.995 68.4499 22.1591 67.7605 22.1591ZM67.7605 21.1051C68.2842 21.1051 68.715 20.9709 69.0531 20.7024C69.3912 20.4339 69.6414 20.081 69.8038 19.6435C69.9662 19.206 70.0474 18.732 70.0474 18.2216C70.0474 17.7112 69.9662 17.2356 69.8038 16.7947C69.6414 16.3539 69.3912 15.9976 69.0531 15.7259C68.715 15.4541 68.2842 15.3182 67.7605 15.3182C67.2368 15.3182 66.8059 15.4541 66.4679 15.7259C66.1298 15.9976 65.8796 16.3539 65.7172 16.7947C65.5548 17.2356 65.4736 17.7112 65.4736 18.2216C65.4736 18.732 65.5548 19.206 65.7172 19.6435C65.8796 20.081 66.1298 20.4339 66.4679 20.7024C66.8059 20.9709 67.2368 21.1051 67.7605 21.1051ZM77.8242 18.8778V14.3636H78.9975V22H77.8242V20.7074H77.7447C77.5657 21.0952 77.2873 21.425 76.9095 21.6967C76.5316 21.9652 76.0543 22.0994 75.4776 22.0994C75.0004 22.0994 74.5761 21.995 74.2049 21.7862C73.8337 21.5741 73.542 21.2559 73.3299 20.8317C73.1178 20.4041 73.0117 19.8655 73.0117 19.2159V14.3636H74.185V19.1364C74.185 19.6932 74.3408 20.1373 74.6524 20.4688C74.9672 20.8002 75.3683 20.9659 75.8555 20.9659C76.1471 20.9659 76.4438 20.8913 76.7454 20.7422C77.0503 20.593 77.3055 20.3643 77.511 20.0561C77.7198 19.7479 77.8242 19.3551 77.8242 18.8778ZM84.4675 14.3636V15.358H80.5101V14.3636H84.4675ZM81.6635 12.5341H82.8368V19.8125C82.8368 20.1439 82.8849 20.3925 82.981 20.5582C83.0804 20.7206 83.2064 20.83 83.3589 20.8864C83.5146 20.9394 83.6787 20.9659 83.851 20.9659C83.9803 20.9659 84.0864 20.9593 84.1692 20.946C84.2521 20.9295 84.3184 20.9162 84.3681 20.9062L84.6067 21.9602C84.5272 21.9901 84.4161 22.0199 84.2736 22.0497C84.1311 22.0829 83.9505 22.0994 83.7317 22.0994C83.4003 22.0994 83.0755 22.0282 82.7573 21.8857C82.4424 21.7431 82.1806 21.526 81.9718 21.2344C81.7663 20.9427 81.6635 20.5748 81.6635 20.1307V12.5341ZM89.3521 22.1591C88.6163 22.1591 87.9816 21.9967 87.448 21.6719C86.9177 21.3438 86.5084 20.8864 86.22 20.2997C85.935 19.7098 85.7924 19.0237 85.7924 18.2415C85.7924 17.4593 85.935 16.7699 86.22 16.1733C86.5084 15.5734 86.9094 15.1061 87.4231 14.7713C87.9402 14.4332 88.5434 14.2642 89.2328 14.2642C89.6305 14.2642 90.0233 14.3305 90.4111 14.4631C90.7988 14.5956 91.1518 14.8111 91.47 15.1094C91.7882 15.4044 92.0417 15.7955 92.2307 16.2827C92.4196 16.7699 92.514 17.3698 92.514 18.0824V18.5795H86.6277V17.5653H91.3209C91.3209 17.1345 91.2347 16.75 91.0623 16.4119C90.8933 16.0739 90.6513 15.8071 90.3365 15.6115C90.0249 15.416 89.657 15.3182 89.2328 15.3182C88.7655 15.3182 88.3611 15.4342 88.0197 15.6662C87.6817 15.8949 87.4215 16.1932 87.2392 16.5611C87.0569 16.929 86.9657 17.3234 86.9657 17.7443V18.4205C86.9657 18.9972 87.0652 19.486 87.264 19.8871C87.4662 20.2848 87.7463 20.5881 88.1042 20.7969C88.4622 21.0024 88.8781 21.1051 89.3521 21.1051C89.6603 21.1051 89.9388 21.062 90.1873 20.9759C90.4392 20.8864 90.6563 20.7538 90.8386 20.5781C91.0209 20.3991 91.1618 20.1771 91.2612 19.9119L92.3947 20.2301C92.2754 20.6146 92.0749 20.9527 91.7932 21.2443C91.5114 21.5327 91.1634 21.758 90.7491 21.9205C90.3348 22.0795 89.8692 22.1591 89.3521 22.1591ZM94.2988 22V14.3636H95.4324V15.517H95.5119C95.6511 15.1392 95.903 14.8326 96.2676 14.5973C96.6322 14.362 97.0432 14.2443 97.5005 14.2443C97.5867 14.2443 97.6944 14.246 97.8237 14.2493C97.953 14.2526 98.0507 14.2576 98.117 14.2642V15.4574C98.0772 15.4474 97.9861 15.4325 97.8436 15.4126C97.7044 15.3894 97.5569 15.3778 97.4011 15.3778C97.0299 15.3778 96.6985 15.4557 96.4068 15.6115C96.1184 15.764 95.8897 15.9761 95.7207 16.2479C95.555 16.5163 95.4721 16.8229 95.4721 17.1676V22H94.2988ZM105.692 22.179C105.209 22.179 104.769 22.0878 104.375 21.9055C103.981 21.7199 103.667 21.4531 103.435 21.1051C103.203 20.7538 103.087 20.3295 103.087 19.8324C103.087 19.3949 103.174 19.0402 103.346 18.7685C103.518 18.4934 103.749 18.2779 104.037 18.1222C104.325 17.9664 104.643 17.8504 104.991 17.7741C105.343 17.6946 105.696 17.6316 106.05 17.5852C106.514 17.5256 106.891 17.4808 107.179 17.451C107.471 17.4179 107.683 17.3632 107.815 17.2869C107.951 17.2107 108.019 17.0781 108.019 16.8892V16.8494C108.019 16.3589 107.885 15.9777 107.616 15.706C107.351 15.4342 106.949 15.2983 106.408 15.2983C105.848 15.2983 105.409 15.4209 105.091 15.6662C104.773 15.9115 104.549 16.1733 104.42 16.4517L103.306 16.054C103.505 15.59 103.77 15.2287 104.102 14.9702C104.436 14.7083 104.801 14.526 105.195 14.4233C105.593 14.3172 105.984 14.2642 106.369 14.2642C106.614 14.2642 106.896 14.294 107.214 14.3537C107.535 14.41 107.845 14.5277 108.143 14.7067C108.445 14.8857 108.695 15.1558 108.894 15.517C109.093 15.8783 109.192 16.3622 109.192 16.9688V22H108.019V20.9659H107.96C107.88 21.1316 107.747 21.3089 107.562 21.4979C107.376 21.6868 107.129 21.8475 106.821 21.9801C106.513 22.1127 106.137 22.179 105.692 22.179ZM105.871 21.125C106.335 21.125 106.727 21.0339 107.045 20.8516C107.366 20.6693 107.608 20.4339 107.771 20.1456C107.936 19.8572 108.019 19.554 108.019 19.2358V18.1619C107.969 18.2216 107.86 18.2763 107.691 18.326C107.525 18.3724 107.333 18.4138 107.114 18.4503C106.899 18.4834 106.688 18.5133 106.483 18.5398C106.281 18.563 106.117 18.5829 105.991 18.5994C105.686 18.6392 105.401 18.7038 105.136 18.7933C104.874 18.8795 104.662 19.0104 104.499 19.1861C104.34 19.3584 104.261 19.5937 104.261 19.892C104.261 20.2997 104.411 20.608 104.713 20.8168C105.018 21.0223 105.404 21.125 105.871 21.125ZM105.951 13.3295L104.4 11.0227H105.772L106.985 13.3295H105.951ZM116.445 11.8182V22H115.271V11.8182H116.445ZM119.628 11.8182V12.7131C119.628 12.9848 119.578 13.2749 119.479 13.5831C119.383 13.888 119.24 14.1847 119.051 14.473C118.866 14.758 118.64 15.0066 118.375 15.2188L117.739 14.7017C117.947 14.4034 118.128 14.0935 118.281 13.772C118.436 13.4472 118.514 13.1009 118.514 12.733V11.8182H119.628ZM122.632 22.179C122.148 22.179 121.709 22.0878 121.314 21.9055C120.92 21.7199 120.607 21.4531 120.375 21.1051C120.143 20.7538 120.027 20.3295 120.027 19.8324C120.027 19.3949 120.113 19.0402 120.285 18.7685C120.458 18.4934 120.688 18.2779 120.976 18.1222C121.265 17.9664 121.583 17.8504 121.931 17.7741C122.282 17.6946 122.635 17.6316 122.99 17.5852C123.454 17.5256 123.83 17.4808 124.118 17.451C124.41 17.4179 124.622 17.3632 124.755 17.2869C124.891 17.2107 124.959 17.0781 124.959 16.8892V16.8494C124.959 16.3589 124.824 15.9777 124.556 15.706C124.291 15.4342 123.888 15.2983 123.348 15.2983C122.788 15.2983 122.349 15.4209 122.03 15.6662C121.712 15.9115 121.488 16.1733 121.359 16.4517L120.246 16.054C120.444 15.59 120.71 15.2287 121.041 14.9702C121.376 14.7083 121.74 14.526 122.135 14.4233C122.533 14.3172 122.924 14.2642 123.308 14.2642C123.553 14.2642 123.835 14.294 124.153 14.3537C124.475 14.41 124.785 14.5277 125.083 14.7067C125.385 14.8857 125.635 15.1558 125.834 15.517C126.033 15.8783 126.132 16.3622 126.132 16.9688V22H124.959V20.9659H124.899C124.819 21.1316 124.687 21.3089 124.501 21.4979C124.316 21.6868 124.069 21.8475 123.76 21.9801C123.452 22.1127 123.076 22.179 122.632 22.179ZM122.811 21.125C123.275 21.125 123.666 21.0339 123.984 20.8516C124.306 20.6693 124.548 20.4339 124.71 20.1456C124.876 19.8572 124.959 19.554 124.959 19.2358V18.1619C124.909 18.2216 124.8 18.2763 124.631 18.326C124.465 18.3724 124.273 18.4138 124.054 18.4503C123.838 18.4834 123.628 18.5133 123.422 18.5398C123.22 18.563 123.056 18.5829 122.93 18.5994C122.625 18.6392 122.34 18.7038 122.075 18.7933C121.813 18.8795 121.601 19.0104 121.439 19.1861C121.28 19.3584 121.2 19.5937 121.2 19.892C121.2 20.2997 121.351 20.608 121.653 20.8168C121.957 21.0223 122.344 21.125 122.811 21.125ZM128.273 24.8636V14.3636H129.407V15.5767H129.546C129.632 15.4441 129.752 15.2751 129.904 15.0696C130.06 14.8608 130.282 14.6752 130.57 14.5128C130.862 14.3471 131.256 14.2642 131.754 14.2642C132.397 14.2642 132.963 14.425 133.454 14.7464C133.944 15.0679 134.327 15.5237 134.602 16.1136C134.877 16.7036 135.015 17.3996 135.015 18.2017C135.015 19.0104 134.877 19.7114 134.602 20.3047C134.327 20.8946 133.946 21.352 133.459 21.6768C132.972 21.9983 132.41 22.1591 131.773 22.1591C131.283 22.1591 130.89 22.0779 130.595 21.9155C130.3 21.7498 130.073 21.5625 129.914 21.3537C129.755 21.1416 129.632 20.9659 129.546 20.8267H129.447V24.8636H128.273ZM129.427 18.1818C129.427 18.7585 129.511 19.2673 129.68 19.7081C129.849 20.1456 130.096 20.4886 130.421 20.7372C130.746 20.9825 131.144 21.1051 131.614 21.1051C132.105 21.1051 132.514 20.9759 132.842 20.7173C133.174 20.4555 133.422 20.1042 133.588 19.6634C133.757 19.2192 133.842 18.7254 133.842 18.1818C133.842 17.6449 133.759 17.161 133.593 16.7301C133.431 16.2959 133.184 15.9529 132.852 15.701C132.524 15.4458 132.112 15.3182 131.614 15.3182C131.137 15.3182 130.736 15.4392 130.411 15.6811C130.086 15.9197 129.841 16.2545 129.675 16.6854C129.51 17.1129 129.427 17.6117 129.427 18.1818ZM136.805 24.8636V14.3636H137.938V15.5767H138.077C138.164 15.4441 138.283 15.2751 138.435 15.0696C138.591 14.8608 138.813 14.6752 139.102 14.5128C139.393 14.3471 139.788 14.2642 140.285 14.2642C140.928 14.2642 141.495 14.425 141.985 14.7464C142.476 15.0679 142.858 15.5237 143.134 16.1136C143.409 16.7036 143.546 17.3996 143.546 18.2017C143.546 19.0104 143.409 19.7114 143.134 20.3047C142.858 20.8946 142.477 21.352 141.99 21.6768C141.503 21.9983 140.941 22.1591 140.305 22.1591C139.814 22.1591 139.421 22.0779 139.126 21.9155C138.831 21.7498 138.604 21.5625 138.445 21.3537C138.286 21.1416 138.164 20.9659 138.077 20.8267H137.978V24.8636H136.805ZM137.958 18.1818C137.958 18.7585 138.043 19.2673 138.212 19.7081C138.381 20.1456 138.628 20.4886 138.952 20.7372C139.277 20.9825 139.675 21.1051 140.146 21.1051C140.636 21.1051 141.045 20.9759 141.374 20.7173C141.705 20.4555 141.954 20.1042 142.119 19.6634C142.288 19.2192 142.373 18.7254 142.373 18.1818C142.373 17.6449 142.29 17.161 142.124 16.7301C141.962 16.2959 141.715 15.9529 141.384 15.701C141.055 15.4458 140.643 15.3182 140.146 15.3182C139.668 15.3182 139.267 15.4392 138.942 15.6811C138.618 15.9197 138.372 16.2545 138.207 16.6854C138.041 17.1129 137.958 17.6117 137.958 18.1818ZM62.5057 36C62.3494 35.5218 62.1435 35.0933 61.8878 34.7145C61.6368 34.331 61.3362 34.0043 60.9858 33.7344C60.6402 33.4645 60.2472 33.2585 59.8068 33.1165C59.3665 32.9744 58.8835 32.9034 58.358 32.9034C57.4962 32.9034 56.7126 33.1259 56.0071 33.571C55.3016 34.0161 54.7405 34.6719 54.3239 35.5384C53.9072 36.4048 53.6989 37.4678 53.6989 38.7273C53.6989 39.9867 53.9096 41.0497 54.331 41.9162C54.7524 42.7827 55.3229 43.4384 56.0426 43.8835C56.7623 44.3286 57.572 44.5511 58.4716 44.5511C59.3049 44.5511 60.0388 44.3736 60.6733 44.0185C61.3125 43.6586 61.8097 43.152 62.1648 42.4986C62.5246 41.8404 62.7046 41.0663 62.7046 40.1761L63.2443 40.2898H58.8693V38.7273H64.4091V40.2898C64.4091 41.4877 64.1534 42.5294 63.6421 43.4148C63.1354 44.3002 62.4347 44.9867 61.5398 45.4744C60.6496 45.9574 59.6269 46.1989 58.4716 46.1989C57.1837 46.1989 56.0521 45.8958 55.0767 45.2898C54.1061 44.6837 53.3485 43.822 52.804 42.7045C52.2642 41.5871 51.9943 40.2614 51.9943 38.7273C51.9943 37.5767 52.1482 36.5421 52.456 35.6236C52.7685 34.7003 53.2088 33.9143 53.777 33.2656C54.3452 32.617 55.0175 32.1198 55.794 31.7741C56.5706 31.4285 57.4252 31.2557 58.358 31.2557C59.125 31.2557 59.84 31.3717 60.5029 31.6037C61.1705 31.831 61.7647 32.1553 62.2855 32.5767C62.8111 32.9934 63.2491 33.4929 63.5994 34.0753C63.9498 34.6529 64.1913 35.2945 64.3239 36H62.5057ZM71.6303 46.2273C70.6455 46.2273 69.7814 45.9929 69.038 45.5241C68.2994 45.0554 67.7217 44.3996 67.3051 43.5568C66.8931 42.714 66.6872 41.7292 66.6872 40.6023C66.6872 39.4659 66.8931 38.474 67.3051 37.6264C67.7217 36.7789 68.2994 36.1207 69.038 35.652C69.7814 35.1832 70.6455 34.9489 71.6303 34.9489C72.6152 34.9489 73.4769 35.1832 74.2156 35.652C74.9589 36.1207 75.5366 36.7789 75.9485 37.6264C76.3652 38.474 76.5735 39.4659 76.5735 40.6023C76.5735 41.7292 76.3652 42.714 75.9485 43.5568C75.5366 44.3996 74.9589 45.0554 74.2156 45.5241C73.4769 45.9929 72.6152 46.2273 71.6303 46.2273ZM71.6303 44.7216C72.3784 44.7216 72.994 44.5298 73.4769 44.1463C73.9599 43.7628 74.3174 43.2585 74.5494 42.6335C74.7814 42.0085 74.8974 41.3314 74.8974 40.6023C74.8974 39.8731 74.7814 39.1937 74.5494 38.5639C74.3174 37.9342 73.9599 37.4252 73.4769 37.0369C72.994 36.6487 72.3784 36.4545 71.6303 36.4545C70.8822 36.4545 70.2667 36.6487 69.7837 37.0369C69.3008 37.4252 68.9433 37.9342 68.7113 38.5639C68.4793 39.1937 68.3633 39.8731 68.3633 40.6023C68.3633 41.3314 68.4793 42.0085 68.7113 42.6335C68.9433 43.2585 69.3008 43.7628 69.7837 44.1463C70.2667 44.5298 70.8822 44.7216 71.6303 44.7216ZM83.5639 46.2273C82.5791 46.2273 81.715 45.9929 80.9716 45.5241C80.233 45.0554 79.6553 44.3996 79.2386 43.5568C78.8267 42.714 78.6207 41.7292 78.6207 40.6023C78.6207 39.4659 78.8267 38.474 79.2386 37.6264C79.6553 36.7789 80.233 36.1207 80.9716 35.652C81.715 35.1832 82.5791 34.9489 83.5639 34.9489C84.5488 34.9489 85.4105 35.1832 86.1492 35.652C86.8925 36.1207 87.4702 36.7789 87.8821 37.6264C88.2988 38.474 88.5071 39.4659 88.5071 40.6023C88.5071 41.7292 88.2988 42.714 87.8821 43.5568C87.4702 44.3996 86.8925 45.0554 86.1492 45.5241C85.4105 45.9929 84.5488 46.2273 83.5639 46.2273ZM83.5639 44.7216C84.312 44.7216 84.9276 44.5298 85.4105 44.1463C85.8935 43.7628 86.251 43.2585 86.483 42.6335C86.715 42.0085 86.831 41.3314 86.831 40.6023C86.831 39.8731 86.715 39.1937 86.483 38.5639C86.251 37.9342 85.8935 37.4252 85.4105 37.0369C84.9276 36.6487 84.312 36.4545 83.5639 36.4545C82.8158 36.4545 82.2003 36.6487 81.7173 37.0369C81.2344 37.4252 80.8769 37.9342 80.6449 38.5639C80.4129 39.1937 80.2969 39.8731 80.2969 40.6023C80.2969 41.3314 80.4129 42.0085 80.6449 42.6335C80.8769 43.2585 81.2344 43.7628 81.7173 44.1463C82.2003 44.5298 82.8158 44.7216 83.5639 44.7216ZM95.4691 50.3182C94.6595 50.3182 93.9634 50.214 93.381 50.0057C92.7987 49.8021 92.3133 49.5322 91.9251 49.196C91.5416 48.8646 91.2362 48.5095 91.0089 48.1307L92.3441 47.1932C92.4956 47.392 92.6874 47.6193 92.9194 47.875C93.1514 48.1354 93.4686 48.3603 93.8711 48.5497C94.2783 48.7438 94.811 48.8409 95.4691 48.8409C96.3498 48.8409 97.0766 48.6278 97.6495 48.2017C98.2224 47.7756 98.5089 47.108 98.5089 46.1989V43.983H98.3668C98.2437 44.1818 98.0685 44.428 97.8413 44.7216C97.6187 45.0104 97.2968 45.2685 96.8754 45.4957C96.4587 45.7183 95.8953 45.8295 95.185 45.8295C94.3043 45.8295 93.5136 45.6212 92.8129 45.2045C92.1168 44.7879 91.5652 44.1818 91.158 43.3864C90.7556 42.5909 90.5543 41.625 90.5543 40.4886C90.5543 39.3712 90.7508 38.3982 91.1438 37.5696C91.5368 36.7363 92.0837 36.0923 92.7845 35.6378C93.4852 35.1785 94.2949 34.9489 95.2134 34.9489C95.9237 34.9489 96.4871 35.0672 96.9038 35.304C97.3252 35.536 97.6471 35.8011 97.8697 36.0994C98.097 36.393 98.2721 36.6345 98.3953 36.8239H98.5657V35.0909H100.185V46.3125C100.185 47.25 99.972 48.0123 99.5458 48.5994C99.1244 49.1913 98.5562 49.6245 97.8413 49.8991C97.131 50.1785 96.3403 50.3182 95.4691 50.3182ZM95.4123 44.3239C96.0846 44.3239 96.6528 44.17 97.1168 43.8622C97.5809 43.5545 97.9336 43.1117 98.1751 42.5341C98.4166 41.9564 98.5373 41.2652 98.5373 40.4602C98.5373 39.6742 98.4189 38.9806 98.1822 38.3793C97.9454 37.7779 97.5951 37.3068 97.131 36.9659C96.667 36.625 96.0941 36.4545 95.4123 36.4545C94.7021 36.4545 94.1102 36.6345 93.6367 36.9943C93.168 37.3542 92.8152 37.8371 92.5785 38.4432C92.3465 39.0492 92.2305 39.7216 92.2305 40.4602C92.2305 41.2178 92.3489 41.8878 92.5856 42.4702C92.8271 43.0478 93.1822 43.5024 93.6509 43.8338C94.1244 44.1605 94.7115 44.3239 95.4123 44.3239ZM104.929 31.4545V46H103.253V31.4545H104.929ZM112.573 46.2273C111.522 46.2273 110.615 45.9953 109.853 45.5312C109.095 45.0625 108.511 44.4091 108.099 43.571C107.692 42.7282 107.488 41.7481 107.488 40.6307C107.488 39.5133 107.692 38.5284 108.099 37.6761C108.511 36.8191 109.084 36.1515 109.817 35.6733C110.556 35.1903 111.418 34.9489 112.403 34.9489C112.971 34.9489 113.532 35.0436 114.086 35.233C114.64 35.4223 115.144 35.7301 115.599 36.1562C116.053 36.5777 116.415 37.1364 116.685 37.8324C116.955 38.5284 117.09 39.3854 117.09 40.4034V41.1136H108.681V39.6648H115.386C115.386 39.0492 115.263 38.5 115.016 38.017C114.775 37.5341 114.429 37.1529 113.979 36.8736C113.534 36.5942 113.009 36.4545 112.403 36.4545C111.735 36.4545 111.157 36.6203 110.67 36.9517C110.187 37.2784 109.815 37.7045 109.555 38.2301C109.294 38.7557 109.164 39.3191 109.164 39.9205V40.8864C109.164 41.7102 109.306 42.4086 109.59 42.9815C109.879 43.5497 110.279 43.983 110.79 44.2812C111.302 44.5748 111.896 44.7216 112.573 44.7216C113.014 44.7216 113.411 44.66 113.766 44.5369C114.126 44.4091 114.436 44.2197 114.697 43.9688C114.957 43.7131 115.158 43.3958 115.3 43.017L116.92 43.4716C116.749 44.0208 116.463 44.5038 116.06 44.9205C115.658 45.3324 115.161 45.6544 114.569 45.8864C113.977 46.1136 113.312 46.2273 112.573 46.2273ZM125.492 46V31.4545H130.407C131.548 31.4545 132.481 31.6605 133.205 32.0724C133.934 32.4796 134.474 33.0312 134.825 33.7273C135.175 34.4233 135.35 35.1998 135.35 36.0568C135.35 36.9138 135.175 37.6927 134.825 38.3935C134.479 39.0942 133.944 39.6529 133.219 40.0696C132.495 40.4815 131.567 40.6875 130.435 40.6875H126.913V39.125H130.379C131.16 39.125 131.787 38.9901 132.261 38.7202C132.734 38.4503 133.077 38.0857 133.29 37.6264C133.508 37.1624 133.617 36.6392 133.617 36.0568C133.617 35.4744 133.508 34.9536 133.29 34.4943C133.077 34.035 132.732 33.6752 132.254 33.4148C131.775 33.1496 131.141 33.017 130.35 33.017H127.254V46H125.492ZM141.17 46.2557C140.479 46.2557 139.852 46.1255 139.288 45.8651C138.725 45.5999 138.277 45.2188 137.946 44.7216C137.615 44.2197 137.449 43.6136 137.449 42.9034C137.449 42.2784 137.572 41.7718 137.818 41.3835C138.064 40.9905 138.393 40.6828 138.805 40.4602C139.217 40.2377 139.672 40.072 140.169 39.9631C140.671 39.8494 141.175 39.7595 141.682 39.6932C142.345 39.608 142.882 39.544 143.294 39.5014C143.711 39.4541 144.014 39.3759 144.203 39.267C144.397 39.1581 144.494 38.9687 144.494 38.6989V38.642C144.494 37.9413 144.303 37.3968 143.919 37.0085C143.54 36.6203 142.965 36.4261 142.193 36.4261C141.393 36.4261 140.766 36.6013 140.311 36.9517C139.857 37.3021 139.537 37.6761 139.352 38.0739L137.761 37.5057C138.045 36.8428 138.424 36.3267 138.898 35.9574C139.376 35.5833 139.897 35.3229 140.46 35.1761C141.028 35.0246 141.587 34.9489 142.136 34.9489C142.487 34.9489 142.889 34.9915 143.344 35.0767C143.803 35.1572 144.246 35.3253 144.672 35.581C145.103 35.8366 145.46 36.2225 145.744 36.7386C146.028 37.2547 146.17 37.946 146.17 38.8125V46H144.494V44.5227H144.409C144.295 44.7595 144.106 45.0128 143.841 45.2827C143.576 45.5526 143.223 45.7822 142.783 45.9716C142.342 46.161 141.805 46.2557 141.17 46.2557ZM141.426 44.75C142.089 44.75 142.648 44.6198 143.102 44.3594C143.562 44.099 143.907 43.7628 144.139 43.3509C144.376 42.9389 144.494 42.5057 144.494 42.0511V40.517C144.423 40.6023 144.267 40.6804 144.026 40.7514C143.789 40.8177 143.514 40.8769 143.202 40.929C142.894 40.9763 142.593 41.0189 142.3 41.0568C142.011 41.09 141.777 41.1184 141.597 41.142C141.161 41.1989 140.754 41.2912 140.375 41.419C140.001 41.5421 139.698 41.7292 139.466 41.9801C139.239 42.2263 139.125 42.5625 139.125 42.9886C139.125 43.571 139.34 44.0114 139.771 44.3097C140.207 44.6032 140.759 44.75 141.426 44.75ZM149.919 50.0909C149.635 50.0909 149.381 50.0672 149.159 50.0199C148.936 49.9773 148.782 49.9347 148.697 49.892L149.123 48.4148C149.53 48.5189 149.89 48.5568 150.203 48.5284C150.515 48.5 150.792 48.3603 151.034 48.1094C151.28 47.8632 151.505 47.4631 151.708 46.9091L152.021 46.0568L147.987 35.0909H149.805L152.816 43.7841H152.93L155.941 35.0909H157.76L153.129 47.5909C152.921 48.1544 152.663 48.6207 152.355 48.9901C152.047 49.3641 151.69 49.6411 151.282 49.821C150.88 50.0009 150.425 50.0909 149.919 50.0909Z" fill="#508EF5"/>
<defs>
<clipPath id="clip0_101_3549">
<rect width="24" height="24" fill="white" transform="translate(16.8011 17.5)"/>
</clipPath>
</defs>
</svg>
