<svg width="241" height="59" viewBox="0 0 241 59" fill="none" xmlns="http://www.w3.org/2000/svg">
<rect width="241" height="59" rx="12" fill="#D93B21"/>
<path d="M38 31.5V34.1667C38 34.5203 37.8595 34.8594 37.6095 35.1095C37.3594 35.3595 37.0203 35.5 36.6667 35.5H27.3333C26.9797 35.5 26.6406 35.3595 26.3905 35.1095C26.1405 34.8594 26 34.5203 26 34.1667V31.5" stroke="white" stroke-linecap="round" stroke-linejoin="round"/>
<path d="M28.6666 28.1667L32 31.5L35.3333 28.1667" stroke="white" stroke-linecap="round" stroke-linejoin="round"/>
<path d="M32 31.5V23.5" stroke="white" stroke-linecap="round" stroke-linejoin="round"/>
<path d="M56.25 36.5H51.7614V21.9545H56.4489C57.8598 21.9545 59.0672 22.2457 60.071 22.8281C61.0748 23.4058 61.8442 24.2367 62.3793 25.321C62.9143 26.4006 63.1818 27.6932 63.1818 29.1989C63.1818 30.714 62.9119 32.0185 62.3722 33.1122C61.8324 34.2012 61.0464 35.0393 60.0142 35.6264C58.982 36.2088 57.7273 36.5 56.25 36.5ZM53.5227 34.9375H56.1364C57.339 34.9375 58.3357 34.7055 59.1264 34.2415C59.9171 33.7775 60.5066 33.117 60.8949 32.2599C61.2831 31.4029 61.4773 30.3826 61.4773 29.1989C61.4773 28.0246 61.2855 27.0137 60.902 26.1662C60.5185 25.3139 59.9455 24.6605 59.1832 24.206C58.4209 23.7467 57.4716 23.517 56.3352 23.517H53.5227V34.9375ZM70.3409 36.7273C69.3561 36.7273 68.492 36.4929 67.7486 36.0241C67.0099 35.5554 66.4323 34.8996 66.0156 34.0568C65.6037 33.214 65.3977 32.2292 65.3977 31.1023C65.3977 29.9659 65.6037 28.974 66.0156 28.1264C66.4323 27.2789 67.0099 26.6207 67.7486 26.152C68.492 25.6832 69.3561 25.4489 70.3409 25.4489C71.3258 25.4489 72.1875 25.6832 72.9261 26.152C73.6695 26.6207 74.2472 27.2789 74.6591 28.1264C75.0758 28.974 75.2841 29.9659 75.2841 31.1023C75.2841 32.2292 75.0758 33.214 74.6591 34.0568C74.2472 34.8996 73.6695 35.5554 72.9261 36.0241C72.1875 36.4929 71.3258 36.7273 70.3409 36.7273ZM70.3409 35.2216C71.089 35.2216 71.7045 35.0298 72.1875 34.6463C72.6705 34.2628 73.0279 33.7585 73.2599 33.1335C73.492 32.5085 73.608 31.8314 73.608 31.1023C73.608 30.3731 73.492 29.6937 73.2599 29.0639C73.0279 28.4342 72.6705 27.9252 72.1875 27.5369C71.7045 27.1487 71.089 26.9545 70.3409 26.9545C69.5928 26.9545 68.9773 27.1487 68.4943 27.5369C68.0114 27.9252 67.6539 28.4342 67.4219 29.0639C67.1899 29.6937 67.0739 30.3731 67.0739 31.1023C67.0739 31.8314 67.1899 32.5085 67.4219 33.1335C67.6539 33.7585 68.0114 34.2628 68.4943 34.6463C68.9773 35.0298 69.5928 35.2216 70.3409 35.2216ZM79.9432 36.5L76.6193 25.5909H78.3807L80.7386 33.9432H80.8523L83.1818 25.5909H84.9716L87.2727 33.9148H87.3864L89.7443 25.5909H91.5057L88.1818 36.5H86.5341L84.1477 28.1193H83.9773L81.5909 36.5H79.9432ZM95.3977 29.9375V36.5H93.7216V25.5909H95.3409V27.2955H95.483C95.7386 26.7415 96.1269 26.2964 96.6477 25.9602C97.1686 25.6193 97.8409 25.4489 98.6648 25.4489C99.4034 25.4489 100.05 25.6004 100.604 25.9034C101.158 26.2017 101.589 26.6562 101.896 27.267C102.204 27.8731 102.358 28.6402 102.358 29.5682V36.5H100.682V29.6818C100.682 28.8248 100.459 28.1572 100.014 27.679C99.5691 27.196 98.9583 26.9545 98.1818 26.9545C97.6468 26.9545 97.1686 27.0705 96.7472 27.3026C96.3305 27.5346 96.0014 27.8731 95.7599 28.3182C95.5185 28.7633 95.3977 29.303 95.3977 29.9375ZM107.097 21.9545V36.5H105.421V21.9545H107.097ZM114.599 36.7273C113.614 36.7273 112.75 36.4929 112.006 36.0241C111.268 35.5554 110.69 34.8996 110.273 34.0568C109.862 33.214 109.656 32.2292 109.656 31.1023C109.656 29.9659 109.862 28.974 110.273 28.1264C110.69 27.2789 111.268 26.6207 112.006 26.152C112.75 25.6832 113.614 25.4489 114.599 25.4489C115.584 25.4489 116.445 25.6832 117.184 26.152C117.927 26.6207 118.505 27.2789 118.917 28.1264C119.334 28.974 119.542 29.9659 119.542 31.1023C119.542 32.2292 119.334 33.214 118.917 34.0568C118.505 34.8996 117.927 35.5554 117.184 36.0241C116.445 36.4929 115.584 36.7273 114.599 36.7273ZM114.599 35.2216C115.347 35.2216 115.962 35.0298 116.445 34.6463C116.928 34.2628 117.286 33.7585 117.518 33.1335C117.75 32.5085 117.866 31.8314 117.866 31.1023C117.866 30.3731 117.75 29.6937 117.518 29.0639C117.286 28.4342 116.928 27.9252 116.445 27.5369C115.962 27.1487 115.347 26.9545 114.599 26.9545C113.851 26.9545 113.235 27.1487 112.752 27.5369C112.269 27.9252 111.912 28.4342 111.68 29.0639C111.448 29.6937 111.332 30.3731 111.332 31.1023C111.332 31.8314 111.448 32.5085 111.68 33.1335C111.912 33.7585 112.269 34.2628 112.752 34.6463C113.235 35.0298 113.851 35.2216 114.599 35.2216ZM125.311 36.7557C124.619 36.7557 123.992 36.6255 123.429 36.3651C122.865 36.0999 122.418 35.7188 122.086 35.2216C121.755 34.7197 121.589 34.1136 121.589 33.4034C121.589 32.7784 121.712 32.2718 121.958 31.8835C122.205 31.4905 122.534 31.1828 122.946 30.9602C123.358 30.7377 123.812 30.572 124.309 30.4631C124.811 30.3494 125.315 30.2595 125.822 30.1932C126.485 30.108 127.022 30.044 127.434 30.0014C127.851 29.9541 128.154 29.8759 128.343 29.767C128.538 29.6581 128.635 29.4687 128.635 29.1989V29.142C128.635 28.4413 128.443 27.8968 128.059 27.5085C127.681 27.1203 127.105 26.9261 126.333 26.9261C125.533 26.9261 124.906 27.1013 124.451 27.4517C123.997 27.8021 123.677 28.1761 123.493 28.5739L121.902 28.0057C122.186 27.3428 122.565 26.8267 123.038 26.4574C123.516 26.0833 124.037 25.8229 124.6 25.6761C125.169 25.5246 125.727 25.4489 126.277 25.4489C126.627 25.4489 127.029 25.4915 127.484 25.5767C127.943 25.6572 128.386 25.8253 128.812 26.081C129.243 26.3366 129.6 26.7225 129.885 27.2386C130.169 27.7547 130.311 28.446 130.311 29.3125V36.5H128.635V35.0227H128.549C128.436 35.2595 128.246 35.5128 127.981 35.7827C127.716 36.0526 127.363 36.2822 126.923 36.4716C126.483 36.661 125.945 36.7557 125.311 36.7557ZM125.566 35.25C126.229 35.25 126.788 35.1198 127.243 34.8594C127.702 34.599 128.047 34.2628 128.279 33.8509C128.516 33.4389 128.635 33.0057 128.635 32.5511V31.017C128.564 31.1023 128.407 31.1804 128.166 31.2514C127.929 31.3177 127.654 31.3769 127.342 31.429C127.034 31.4763 126.734 31.5189 126.44 31.5568C126.151 31.59 125.917 31.6184 125.737 31.642C125.301 31.6989 124.894 31.7912 124.515 31.919C124.141 32.0421 123.838 32.2292 123.606 32.4801C123.379 32.7263 123.265 33.0625 123.265 33.4886C123.265 34.071 123.481 34.5114 123.912 34.8097C124.347 35.1032 124.899 35.25 125.566 35.25ZM137.489 36.7273C136.58 36.7273 135.778 36.4976 135.082 36.0384C134.386 35.5743 133.841 34.9209 133.448 34.0781C133.055 33.2306 132.859 32.2292 132.859 31.0739C132.859 29.928 133.055 28.9337 133.448 28.0909C133.841 27.2481 134.388 26.5971 135.089 26.1378C135.79 25.6785 136.599 25.4489 137.518 25.4489C138.228 25.4489 138.789 25.5672 139.201 25.804C139.618 26.036 139.935 26.3011 140.153 26.5994C140.375 26.893 140.548 27.1345 140.671 27.3239H140.813V21.9545H142.489V36.5H140.87V34.8239H140.671C140.548 35.0227 140.373 35.2737 140.146 35.5767C139.918 35.875 139.594 36.1425 139.173 36.3793C138.751 36.6113 138.19 36.7273 137.489 36.7273ZM137.717 35.2216C138.389 35.2216 138.957 35.0464 139.421 34.696C139.885 34.3409 140.238 33.8509 140.479 33.2259C140.721 32.5961 140.842 31.8693 140.842 31.0455C140.842 30.2311 140.723 29.5185 140.487 28.9077C140.25 28.2921 139.899 27.8139 139.435 27.473C138.971 27.1274 138.398 26.9545 137.717 26.9545C137.006 26.9545 136.415 27.1368 135.941 27.5014C135.472 27.8613 135.12 28.3513 134.883 28.9716C134.651 29.5871 134.535 30.2784 134.535 31.0455C134.535 31.822 134.653 32.5275 134.89 33.1619C135.131 33.7917 135.487 34.2936 135.955 34.6676C136.429 35.0369 137.016 35.2216 137.717 35.2216ZM154.627 36.7557C153.936 36.7557 153.308 36.6255 152.745 36.3651C152.182 36.0999 151.734 35.7188 151.403 35.2216C151.071 34.7197 150.906 34.1136 150.906 33.4034C150.906 32.7784 151.029 32.2718 151.275 31.8835C151.521 31.4905 151.85 31.1828 152.262 30.9602C152.674 30.7377 153.129 30.572 153.626 30.4631C154.128 30.3494 154.632 30.2595 155.138 30.1932C155.801 30.108 156.339 30.044 156.751 30.0014C157.167 29.9541 157.47 29.8759 157.66 29.767C157.854 29.6581 157.951 29.4687 157.951 29.1989V29.142C157.951 28.4413 157.759 27.8968 157.376 27.5085C156.997 27.1203 156.422 26.9261 155.65 26.9261C154.85 26.9261 154.222 27.1013 153.768 27.4517C153.313 27.8021 152.994 28.1761 152.809 28.5739L151.218 28.0057C151.502 27.3428 151.881 26.8267 152.354 26.4574C152.833 26.0833 153.353 25.8229 153.917 25.6761C154.485 25.5246 155.044 25.4489 155.593 25.4489C155.943 25.4489 156.346 25.4915 156.8 25.5767C157.26 25.6572 157.702 25.8253 158.129 26.081C158.559 26.3366 158.917 26.7225 159.201 27.2386C159.485 27.7547 159.627 28.446 159.627 29.3125V36.5H157.951V35.0227H157.866C157.752 35.2595 157.563 35.5128 157.298 35.7827C157.032 36.0526 156.68 36.2822 156.239 36.4716C155.799 36.661 155.262 36.7557 154.627 36.7557ZM154.883 35.25C155.546 35.25 156.104 35.1198 156.559 34.8594C157.018 34.599 157.364 34.2628 157.596 33.8509C157.833 33.4389 157.951 33.0057 157.951 32.5511V31.017C157.88 31.1023 157.724 31.1804 157.482 31.2514C157.246 31.3177 156.971 31.3769 156.658 31.429C156.351 31.4763 156.05 31.5189 155.756 31.5568C155.468 31.59 155.233 31.6184 155.053 31.642C154.618 31.6989 154.21 31.7912 153.832 31.919C153.458 32.0421 153.155 32.2292 152.923 32.4801C152.695 32.7263 152.582 33.0625 152.582 33.4886C152.582 34.071 152.797 34.5114 153.228 34.8097C153.664 35.1032 154.215 35.25 154.883 35.25ZM170.414 28.0341L168.908 28.4602C168.813 28.2093 168.674 27.9654 168.489 27.7287C168.309 27.4872 168.063 27.2884 167.75 27.1321C167.438 26.9759 167.038 26.8977 166.55 26.8977C165.882 26.8977 165.326 27.0516 164.881 27.3594C164.441 27.6624 164.221 28.0483 164.221 28.517C164.221 28.9337 164.372 29.2628 164.675 29.5043C164.978 29.7457 165.452 29.947 166.096 30.108L167.715 30.5057C168.69 30.7424 169.417 31.1046 169.895 31.5923C170.373 32.0753 170.613 32.6979 170.613 33.4602C170.613 34.0852 170.433 34.6439 170.073 35.1364C169.718 35.6288 169.221 36.017 168.581 36.3011C167.942 36.5852 167.199 36.7273 166.351 36.7273C165.239 36.7273 164.318 36.4858 163.588 36.0028C162.859 35.5199 162.398 34.8144 162.203 33.8864L163.794 33.4886C163.946 34.0758 164.232 34.5161 164.654 34.8097C165.08 35.1032 165.636 35.25 166.323 35.25C167.104 35.25 167.724 35.0843 168.184 34.7528C168.648 34.4167 168.88 34.0142 168.88 33.5455C168.88 33.1667 168.747 32.8494 168.482 32.5938C168.217 32.3333 167.81 32.1392 167.26 32.0114L165.442 31.5852C164.443 31.3485 163.709 30.9815 163.24 30.4844C162.776 29.9825 162.544 29.3551 162.544 28.6023C162.544 27.9867 162.717 27.4422 163.063 26.9688C163.413 26.4953 163.889 26.1236 164.49 25.8537C165.096 25.5838 165.783 25.4489 166.55 25.4489C167.63 25.4489 168.477 25.6856 169.093 26.1591C169.713 26.6326 170.153 27.2576 170.414 28.0341ZM178.988 36.5V21.9545H183.903C185.044 21.9545 185.977 22.1605 186.701 22.5724C187.43 22.9796 187.97 23.5312 188.32 24.2273C188.671 24.9233 188.846 25.6998 188.846 26.5568C188.846 27.4138 188.671 28.1927 188.32 28.8935C187.975 29.5942 187.44 30.1529 186.715 30.5696C185.991 30.9815 185.063 31.1875 183.931 31.1875H180.408V29.625H183.874C184.656 29.625 185.283 29.4901 185.756 29.2202C186.23 28.9503 186.573 28.5857 186.786 28.1264C187.004 27.6624 187.113 27.1392 187.113 26.5568C187.113 25.9744 187.004 25.4536 186.786 24.9943C186.573 24.535 186.228 24.1752 185.749 23.9148C185.271 23.6496 184.637 23.517 183.846 23.517H180.749V36.5H178.988ZM196.172 36.5H191.683V21.9545H196.371C197.782 21.9545 198.989 22.2457 199.993 22.8281C200.997 23.4058 201.766 24.2367 202.301 25.321C202.836 26.4006 203.104 27.6932 203.104 29.1989C203.104 30.714 202.834 32.0185 202.294 33.1122C201.754 34.2012 200.968 35.0393 199.936 35.6264C198.904 36.2088 197.649 36.5 196.172 36.5ZM193.445 34.9375H196.058C197.261 34.9375 198.258 34.7055 199.048 34.2415C199.839 33.7775 200.429 33.117 200.817 32.2599C201.205 31.4029 201.399 30.3826 201.399 29.1989C201.399 28.0246 201.207 27.0137 200.824 26.1662C200.44 25.3139 199.867 24.6605 199.105 24.206C198.343 23.7467 197.393 23.517 196.257 23.517H193.445V34.9375ZM206.058 36.5V21.9545H214.78V23.517H207.82V28.4318H214.126V29.9943H207.82V36.5H206.058Z" fill="white"/>
</svg>
